<svg xmlns="http://www.w3.org/2000/svg" width="41" height="38" viewBox="0 0 51 48" fill="none">
  <path d="M38.8839 11.0519V10.5519H38.3839H6C2.96243 10.5519 0.5 13.0143 0.5 16.0519V30.3009C0.5 33.3385 2.96244 35.8009 6 35.8009H33.3839C36.4215 35.8009 38.8839 33.3385 38.8839 30.3009V11.0519Z" fill="#F4D469" stroke="black"/>
  <rect x="41.4992" y="19.2168" width="18.7176" height="8.53671" rx="4.26836" transform="rotate(-89.9112 41.4992 19.2168)" fill="#F4D469" stroke="black"/>
  <path d="M29.2905 29.7491C24.5503 29.7491 20.7075 33.5918 20.7075 38.3321C20.7075 43.0723 24.5503 46.9151 29.2905 46.9151C34.0308 46.9151 37.8736 43.0723 37.8736 38.3321C37.8736 33.5918 34.0308 29.7491 29.2905 29.7491Z" fill="#F4D469" stroke="black"/>
  <rect x="2.52075" y="29.7491" width="17.166" height="17.166" rx="8.58302" fill="#F4D469" stroke="black"/>
</svg>